# xmcd
#
# Track frame offsets:
#	150
#	11928
#	26747
#	38666
#	50049
#	63741
#	76894
#	88412
#	101315
#	115689
#	130131
#	144915
#	159118
#	172231
#	183306
#	196005
#	205993
#	220883
#	233982
#	244755
#	259732
#	270446
#	285560
#	296993
#
# Disc length: 4129 seconds
#
# Revision: 1
# Processed by: cddbd v1.5.2PL0 Copyright (c) Steve Scherf et al.
# Submitted via: audiograbber 1.83.01
#
DISCID=60101f18
DTITLE=Comedian Harmonists - Comedian Harmonists CD4
DYEAR=2010
DGENRE=A Cappella
TTITLE0=Tausendmal War Ich Im Traum Bei Dir
TTITLE1=Träume, Die Nur Um Deine Liebe Sich Dreh'n
TTITLE2=Veronika, der Lenz ist da
TTITLE3=Was Dein Roter Mund Im Frühling Sagt
TTITLE4=Wenn Der Wind Weht Über Das Meer
TTITLE5=Wenn Die Sonja Russisch Tanzt
TTITLE6=Wenn Ich Vergnügt Bin, Muss Ich Singen
TTITLE7=Wir Sind Von Kopf Bis Fuss Auf Liebe Eingestellt
TTITLE8=Wochend' Und Sonnenschein [Happy Days Are Here Again]
TTITLE9=Congo Lullaby
TTITLE10=Night And Day
TTITLE11=Whispering
TTITLE12=Au Revoir, Bon Voyage [Lebe Wohl, Gute Reise]
TTITLE13=Continental
TTITLE14=Espabilate
TTITLE15=Florestan L Er- Prince De Monaco
TTITLE16=Guitar D'amour [Gitarren Spielt Auf]
TTITLE17=Il Ne Faut Pas Briser Un Reve
TTITLE18=J'aime Une Tyrolienne [Mein Kleiner Grüner Kaktus]
TTITLE19=Les Gars De La Marine [Das Ist Die Liebe Der Matrosen]
TTITLE20=Natacha
TTITLE21=Quand Il Pleut [Stormy Weather]
TTITLE22=Véronique, Le Printemps Est Là
TTITLE23=Voilà L'travail [Hopple Jetzt Komm Ich]
EXTD=
EXTT0=
EXTT1=
EXTT2=
EXTT3=
EXTT4=
EXTT5=
EXTT6=
EXTT7=
EXTT8=
EXTT9=
EXTT10=
EXTT11=
EXTT12=
EXTT13=
EXTT14=
EXTT15=
EXTT16=
EXTT17=
EXTT18=
EXTT19=
EXTT20=
EXTT21=
EXTT22=
EXTT23=
PLAYORDER=
